<svg xmlns="http://www.w3.org/2000/svg" viewBox="0 0 171.18 51.31"><defs><style>.cls-1{fill:#c00000;}</style></defs><g id="Layer_2" data-name="Layer 2"><g id="Ebene_1" data-name="Ebene 1"><path class="cls-1" d="M7.7,45.65c.75,1.08,1.5,2.19,2.23,3.34H10c-.08-1.2-.12-2.41-.12-3.66V38.8h1.5V51.08H9.88L5.06,44.23c-.83-1.19-1.58-2.3-2.23-3.34H2.77c.08,1.12.12,2.43.12,3.92v6.27H1.4V38.8H2.88Z"/><path class="cls-1" d="M16,49.73h6.29v1.35H14.48V38.8h7.46v1.35H16v4h5.29v1.35H16Z"/><path class="cls-1" d="M31.52,40.83c-.1.56-.33,1.55-.69,3l-1.9,7.3H27.41L23.65,38.8h1.5L27.26,46c.33,1.16.62,2.2.86,3.12h0c.12-.57.26-1.12.4-1.66L28.93,46l1.86-7.22h1.5L34.14,46c.45,1.74.71,2.77.77,3.1h0c.21-.85.5-1.89.86-3.12l2.11-7.2h1.5L35.65,51.08H34.14l-1.9-7.3c-.35-1.35-.57-2.34-.68-3Z"/><path class="cls-1" d="M54.15,46.11h-2.8V44.77h4.29V50.7a2.56,2.56,0,0,1-.56.21c-.25.07-.53.13-.85.19a11.67,11.67,0,0,1-2.1.21,8.52,8.52,0,0,1-2.79-.43,5.75,5.75,0,0,1-2-1.22,5.22,5.22,0,0,1-1.24-1.92,7.16,7.16,0,0,1-.42-2.52,7.67,7.67,0,0,1,.46-2.73,5.86,5.86,0,0,1,1.34-2.1,6,6,0,0,1,2.12-1.34,7.58,7.58,0,0,1,2.74-.48,7.32,7.32,0,0,1,.81,0c.27,0,.53,0,.77.09a5.81,5.81,0,0,1,.68.14,3.17,3.17,0,0,1,.52.17v1.32a8.67,8.67,0,0,0-1.26-.3,7.79,7.79,0,0,0-1.44-.13,6.28,6.28,0,0,0-2,.32,4.84,4.84,0,0,0-1.68,1,4.67,4.67,0,0,0-1.15,1.61,5.47,5.47,0,0,0-.43,2.27,6.31,6.31,0,0,0,.35,2.2,4,4,0,0,0,1,1.53,4.15,4.15,0,0,0,1.59.9,7.06,7.06,0,0,0,2.08.29,9.49,9.49,0,0,0,2-.21Z"/><path class="cls-1" d="M60.73,38.8V49.73h6v1.35H59.24V38.8Z"/><path class="cls-1" d="M79.26,45a7.77,7.77,0,0,1-.4,2.56,5.84,5.84,0,0,1-1.15,2,5.23,5.23,0,0,1-1.8,1.31,5.58,5.58,0,0,1-2.35.48,5.79,5.79,0,0,1-2.41-.48,5,5,0,0,1-1.8-1.31,5.65,5.65,0,0,1-1.13-2A8,8,0,0,1,67.83,45a7.78,7.78,0,0,1,.4-2.57,5.89,5.89,0,0,1,1.15-2,5,5,0,0,1,1.8-1.31,5.62,5.62,0,0,1,2.36-.48,5.78,5.78,0,0,1,2.4.48,5,5,0,0,1,1.8,1.31,5.85,5.85,0,0,1,1.13,2A8.06,8.06,0,0,1,79.26,45Zm-1.49,0a6.86,6.86,0,0,0-.32-2.18,4.57,4.57,0,0,0-.9-1.58,3.85,3.85,0,0,0-1.34-1,4.22,4.22,0,0,0-1.67-.33,4.17,4.17,0,0,0-1.66.33,3.79,3.79,0,0,0-1.35,1,4.4,4.4,0,0,0-.89,1.58,7.37,7.37,0,0,0,0,4.36,4.62,4.62,0,0,0,.9,1.57,3.79,3.79,0,0,0,1.35,1,4.49,4.49,0,0,0,3.33,0,3.81,3.81,0,0,0,1.33-1,4.62,4.62,0,0,0,.9-1.57A6.9,6.9,0,0,0,77.77,45Z"/><path class="cls-1" d="M88,44.73a3.2,3.2,0,0,1,1,.3,2.8,2.8,0,0,1,.78.57,2.4,2.4,0,0,1,.5.81,3.06,3.06,0,0,1,.17,1.08,3.6,3.6,0,0,1-.12.9,3.45,3.45,0,0,1-.42.92,3.54,3.54,0,0,1-.78.82,3.86,3.86,0,0,1-1.18.62,5.39,5.39,0,0,1-1.21.25,14.23,14.23,0,0,1-1.59.08H82V38.8h3l.76,0,.63,0,.53.07c.16,0,.31.06.46.09a4.63,4.63,0,0,1,1,.43,3.16,3.16,0,0,1,.79.65,2.71,2.71,0,0,1,.51.85,3.15,3.15,0,0,1,.17,1,3.49,3.49,0,0,1-.1.86,2.6,2.6,0,0,1-.34.76,2.56,2.56,0,0,1-.61.62,3.17,3.17,0,0,1-.9.46Zm-2.2-.62a5.78,5.78,0,0,0,.77,0,3,3,0,0,0,.57-.12,1.81,1.81,0,0,0,1-.72,2,2,0,0,0,.32-1.14A1.69,1.69,0,0,0,88.11,41a2,2,0,0,0-1-.65,5.2,5.2,0,0,0-.81-.14c-.31,0-.67,0-1.08,0H83.51v4Zm-2.27,1.35v4.27h1.81a11.14,11.14,0,0,0,1.19-.06,4.32,4.32,0,0,0,.94-.19,2.61,2.61,0,0,0,.71-.35,1.94,1.94,0,0,0,.47-.48,1.73,1.73,0,0,0,.26-.55,2.47,2.47,0,0,0,.08-.6,2.84,2.84,0,0,0-.08-.66,1.53,1.53,0,0,0-.77-1,2.48,2.48,0,0,0-.77-.29,4.76,4.76,0,0,0-.63-.09q-.34,0-.87,0Z"/><path class="cls-1" d="M94.66,49.73H101v1.35H93.16V38.8h7.45v1.35h-6v4H100v1.35H94.66Z"/><path class="cls-1" d="M113.22,39.9a5.55,5.55,0,0,0-1.93.33,4.33,4.33,0,0,0-1.56,1,4.66,4.66,0,0,0-1,1.61,6.82,6.82,0,0,0,0,4.43,4,4,0,0,0,1,1.54,3.91,3.91,0,0,0,1.56.9,6.52,6.52,0,0,0,2,.3,4.93,4.93,0,0,0,.65,0l.7-.09c.23,0,.45-.08.67-.14a5.47,5.47,0,0,0,.59-.16v1.32a5.84,5.84,0,0,1-1.25.32,8.93,8.93,0,0,1-1.47.12,8.13,8.13,0,0,1-2.72-.43,5.34,5.34,0,0,1-2-1.22,5.27,5.27,0,0,1-1.21-1.95,7.61,7.61,0,0,1-.41-2.61,7.7,7.7,0,0,1,.43-2.64,5.7,5.7,0,0,1,3.25-3.41,6.88,6.88,0,0,1,2.63-.48,6.34,6.34,0,0,1,.76,0q.38,0,.72.09a5.51,5.51,0,0,1,.64.14,3.22,3.22,0,0,1,.5.17v1.32a9.3,9.3,0,0,0-1.21-.3A6.66,6.66,0,0,0,113.22,39.9Z"/><path class="cls-1" d="M119.86,49.73h6.29v1.35h-7.79V38.8h7.45v1.35h-6v4h5.29v1.35h-5.29Z"/><path class="cls-1" d="M135,45.65c.75,1.08,1.49,2.19,2.23,3.34h.05c-.08-1.2-.12-2.41-.12-3.66V38.8h1.51V51.08h-1.5l-4.82-6.85c-.83-1.19-1.57-2.3-2.23-3.34h-.05c.08,1.12.12,2.43.12,3.92v6.27h-1.5V38.8h1.49Z"/><path class="cls-1" d="M146.21,51.08h-1.49V40.15h-4.11V38.8h9.7v1.35h-4.1Z"/><path class="cls-1" d="M153.74,49.73H160v1.35h-7.79V38.8h7.45v1.35h-5.95v4H159v1.35h-5.29Z"/><path class="cls-1" d="M164.1,46v5.09h-1.5V38.8h3.18a13.12,13.12,0,0,1,1.37.06,5.91,5.91,0,0,1,1,.19,3.62,3.62,0,0,1,2,1.19,3.18,3.18,0,0,1,.68,2.09,3.47,3.47,0,0,1-.24,1.33,2.75,2.75,0,0,1-.67,1,3.32,3.32,0,0,1-1,.71,5.3,5.3,0,0,1-1.33.4v0l3.63,5.25h-1.49L165.9,46Zm0-5.84v4.5h1.47c.46,0,.85,0,1.18,0a5.2,5.2,0,0,0,.87-.16,2.39,2.39,0,0,0,1.2-.77,2.09,2.09,0,0,0,.42-1.36,2,2,0,0,0-.4-1.27,2.2,2.2,0,0,0-1.09-.7,4.72,4.72,0,0,0-.79-.14c-.31,0-.69-.05-1.17-.05Z"/><path d="M70.07,27.79a13.9,13.9,0,1,1,9.52-24l.18.17L77.44,6.3l-.17-.15a10.58,10.58,0,1,0,.07,15.43l.17-.16,2.38,2.3-.18.17A14,14,0,0,1,70.07,27.79Z"/><path d="M41.37,27.79a13.9,13.9,0,1,1,9.51-24l.18.17L48.73,6.3l-.17-.15a10.58,10.58,0,1,0,.07,15.43l.17-.16,2.38,2.3-.18.17A14,14,0,0,1,41.37,27.79Z"/><path d="M3.4,27.46H0V.17H2.65l.07.09L19.42,21V.16h3.44V27.45H20.05L20,27.36,3.4,6.8Z"/><polygon class="cls-1" points="41.24 14.13 44.66 17.44 51.9 17.44 51.9 14.13 41.24 14.13"/></g></g></svg>